<?xml version="1.0" encoding="UTF-8"?>
<svg version="1.1" viewBox="0 0 773.76 926.08" xmlns="http://www.w3.org/2000/svg">
<path d="m379.95 90.664c-25.6 3.3613-50.357 4.3488-75.52 11.522-75.287 21.464-141.21 72.504-180.21 140.53-59.816 104.34-52.54 238.26 19.807 334.72 21.588 28.784 48.361 53.717 78.48 73.382 29.026 18.944 61.654 32.621 95.36 40.614 35.988 8.5312 73.47 10.317 110.08 5.504 142.74-18.771 257.96-141.27 264.29-285.9 4.5312-103.39-42.758-203.61-127.33-264.05-25.062-17.91-52.749-31.51-81.92-41.233-23.4-7.7997-47.213-11.851-71.68-14.189-10.067-0.96192-21.281-2.2227-31.36-0.89984m-120.32 48.369v69.76c0 9.1968 2.4986 22.669-0.5216 31.36-1.8624 5.36-7.0957 17.956-11.775 21.162-8.5165 5.8362-18.691 6.409-25.668 15.32-7.2166 9.2154-6.1952 19.713-6.1952 30.717h32c1.0464 11.909 14.609 20.035 24.31 11.4 2.7334-2.4333 4.704-10.296 7.7818-11.196 8.5485-2.5018 21.059-0.20352 29.988-0.20352 0-9.4163 1.2634-19.133-3.8842-27.52-4.2144-6.8678-11.248-11.586-18.516-14.808-2.8736-1.2742-6.8326-1.8528-9.3504-3.7094-4.8429-3.5725-9.255-15.024-11.626-20.522-3.3888-7.8566-0.784-21.556-0.784-30.08v-49.28c0-7.5418-1.1859-16.186 0.0947-23.613 0.86528-5.0182 13.638-7.9974 17.825-9.6672 19.176-7.6454 39.166-12.831 59.52-16.157 85.165-13.921 176.03 12.903 239.36 71.894 28.865 26.888 52.902 59.615 68.48 95.943 44.32 103.35 25.011 224.84-50.669 308.48-20.739 22.922-45.397 41.896-72.211 57.139-24.92 14.17-52.532 24.499-80.64 30.157-31.773 6.3936-64.514 7.9872-96.64 3.584-36.047-4.9408-70.56-16.16-102.4-33.83-25.488-14.146-49.19-32.516-69.062-53.85-95.812-102.86-102.65-263.02-16.329-373.76 18.749-24.055 41.471-44.749 66.831-61.653 8.9901-5.993 19.652-14 30.08-17.067m44.8 162.56h-83.84c0-8.2112 9e-3 -15.65 5.4515-22.39 15.841-19.62 60.142-19.633 74.481 1.9104 4.2221 6.343 3.9072 13.201 3.9072 20.48m81.92 219.52v-80c0-13.089 1.9334-27.612-5.8202-39.04-9.2794-13.677-24.145-14.08-38.98-14.08h-97.92c-15.693 0-32.351-1.7427-44.1 10.883-10.704 11.502-9.0195 26.467-9.0195 40.957 0 29.449-3.6109 65.77 30.72 78.275 16.894 6.1536 37.924 3.0048 55.68 3.0048h109.44m3.84 0h108.16c17.17 0 37.939 3.1712 54.4-2.2522 4.5312-1.4931 8.9312-3.7626 12.8-6.5453 24.006-17.268 19.84-45.894 19.84-71.843 0-13.956 2.1613-28.99-7.7978-40.32-12.052-13.711-28.712-12.16-45.322-12.16h-97.28c-15.432 0-30.312 0.47488-39.84 14.72-7.2608 10.856-4.96 25.373-4.96 37.76v80.64m-245.76-70.4c0 16.958-0.42112 34.006 3.9386 50.56 2.3027 8.743 5.5309 17.162 10.151 24.96 20.215 34.12 59.953 39.68 95.99 39.68-1.1731 7.9437-13.611 27.857 1.92 29.722 10.118 1.2154 12.579-14.979 14.933-22.042 0.71488-2.144 1.239-5.6826 3.255-7.0221 3.161-2.0998 10.751-0.65792 14.452-0.65792h154.24c18.02 0 38.543-2.7789 56.308 0.0947 3.7779 0.6112 4.2976 5.1898 5.3517 8.2253 2.4134 6.951 4.3949 21.375 13.86 21.375 16.525 0 4.3072-22.147 2.56-29.695 13.978 0 27.9 0.12096 41.6-3.1258 9.5078-2.2534 18.987-5.0637 27.52-9.9475 37.454-21.437 41.6-63.224 41.6-102.13 15.846-1.3837 23.104-22.446 9.6-32.232-10.79-7.8189-32.705-3.6077-45.44-3.6077 0 18.785 0.20544 37.584-0.61504 56.32-0.7072 16.151-3.1597 33.962-16.026 45.322-22.599 19.955-61.913 13.558-89.599 13.558h-197.12c-27.976 0-64.498 5.9379-89.6-9.0931-25.343-15.175-23.04-47.882-23.04-73.467v-23.68c0-2.1222 0.86464-6.8045-1.0259-8.3021-2.455-1.9443-9.4029-0.65792-12.414-0.65792-11.139 0-28.386-3.3216-35.975 7.0496-8.4755 11.583-0.79552 28.134 13.575 28.79m87.68 284.16v60.16h8.96c0-8.0704-3.4022-26.221 8.3194-28.134 2.9978-0.4928 5.8931 4.5312 7.6902 6.3744 4.4832 4.5952 8.9997 9.2608 13.248 14.08 2.3245 2.6368 4.8979 6.5728 8.5024 7.4752 3.4285 0.864 16.072 1.7152 18.295-1.28 3.0592-4.1216 3.161-12.858 7.5725-15.776 1.9027-1.2608 5.2442-0.6592 7.4125-0.6592 5.8618 0 13.506-1.312 19.172 0.2048 5.8752 1.568 5.7722 12.8 9.6243 16.691 1.9814 1.9968 7.0106 1.024 9.6038 1.024-4.6323-16.205-14.123-31.898-20.849-47.36-3.2448-7.4624-4.7258-14.291-14.324-12.704-4.4915 0.7424-6.7578 10.278-8.3469 13.984-6.1434 14.336-14.447 29.12-18.561 44.16l-21.229-21.76-10.131-11.52c11.069-5.0688 20.336-16.979 30.08-24.32v-0.64l-10.88 0.3584-11.52 8.7616-23.68 19.68v-28.8h-8.96m128 0v60.16h8.32l-0.64-50.56h0.64l24.689 35.2 11.343 14.701 10.048 0.6592v-60.16h-8.32l0.64 49.28-25.199-34.56-10.938-14.061-10.583-0.6592m64.64 60.16c2.4749 0 7.0669 0.8896 8.9638-1.024 4.2835-4.3328 3.3754-16.557 10.879-16.883 5.927-0.2624 19.719-2.4192 24.813 0.6464 5.2704 3.168 4.0064 13.12 8.8794 16.602 2.1402 1.5296 6.6669 0.6592 9.1846 0.6592-4.416-15.45-13.315-30.816-19.988-45.44-1.6877-3.6992-3.9232-13.318-8.2394-14.515-2.4845-0.6912-7.7581-0.8576-9.5366 1.28-3.865 4.6336-5.84 12.813-8.2202 18.355-5.3882 12.557-14.349 26.886-16.736 40.32m72.32-60.16v60.16h8.96v-23.68c10.159 0 23.379 2.08 32.64-2.976 10.874-5.9328 11.864-23.469 1.2794-30.221-10.91-6.9568-30.467-3.2832-42.879-3.2832m-178.56 7.04 11.52 27.52h-23.04c2.8474-8.3648 6.2176-20.506 11.52-27.52m136.96 0 11.52 27.52h-23.04c2.8474-8.3648 6.2176-20.506 11.52-27.52m50.56 21.76v-21.76c8.0256 0 20.334-2.1696 27.517 2.0672 6.144 3.6224 6.9094 13.76 0.61504 17.766-6.9485 4.4224-20.214 1.9264-28.132 1.9264m-206.08 49.92h174.72c-1.1616-3.5008-5.2173-2.56-8.32-2.56h-156.8c-3.2781 0-8.3558-1.1904-9.6 2.56z" fill="#0b3d4e"/>
</svg>
