<svg xmlns="http://www.w3.org/2000/svg" xmlns:xlink="http://www.w3.org/1999/xlink" width="500" zoomAndPan="magnify" viewBox="0 0 375 374.999991" height="500" preserveAspectRatio="xMidYMid meet" version="1.0"><defs><g/><clipPath id="0e36411bb7"><path d="M 147.132812 111.390625 L 228.132812 111.390625 L 228.132812 188.640625 L 147.132812 188.640625 Z M 147.132812 111.390625 " clip-rule="nonzero"/></clipPath><clipPath id="bde6d9a262"><path d="M 190.394531 155.765625 L 190.394531 121.285156 C 190.394531 119.945312 191.667969 118.980469 192.957031 119.339844 L 226.65625 128.804688 C 227.527344 129.050781 228.128906 129.84375 228.128906 130.75 L 228.128906 165.230469 C 228.128906 166.566406 226.851562 167.535156 225.566406 167.175781 L 191.867188 157.707031 C 190.996094 157.464844 190.394531 156.667969 190.394531 155.765625 Z M 164.957031 133.367188 L 182.308594 138.242188 C 183.59375 138.605469 184.867188 137.636719 184.867188 136.300781 L 184.867188 118.574219 C 184.867188 117.667969 184.265625 116.875 183.398438 116.632812 L 166.046875 111.757812 C 164.757812 111.394531 163.484375 112.363281 163.484375 113.699219 L 163.484375 131.425781 C 163.484375 132.332031 164.085938 133.125 164.957031 133.367188 Z M 183.398438 142.339844 L 149.695312 132.871094 C 148.410156 132.511719 147.136719 133.480469 147.136719 134.816406 L 147.136719 169.296875 C 147.136719 170.203125 147.738281 170.996094 148.605469 171.238281 L 182.308594 180.707031 C 183.59375 181.066406 184.867188 180.101562 184.867188 178.761719 L 184.867188 144.28125 C 184.867188 143.378906 184.265625 142.582031 183.398438 142.339844 Z M 210.308594 166.675781 L 192.957031 161.804688 C 191.667969 161.441406 190.394531 162.410156 190.394531 163.746094 L 190.394531 181.472656 C 190.394531 182.375 190.996094 183.171875 191.867188 183.414062 L 209.21875 188.289062 C 210.503906 188.652344 211.777344 187.683594 211.777344 186.347656 L 211.777344 168.621094 C 211.777344 167.714844 211.175781 166.921875 210.308594 166.675781 Z M 210.308594 166.675781 " clip-rule="nonzero"/></clipPath><linearGradient x1="114.296455" gradientTransform="matrix(0.00000000000000001, 0.162154, -0.161984, 0.00000000000000001, 228.127239, 111.680597)" y1="-47.633938" x2="358.610875" gradientUnits="userSpaceOnUse" y2="547.607279" id="c939cb7163"><stop stop-opacity="1" stop-color="rgb(77.598572%, 30.999756%, 100%)" offset="0"/><stop stop-opacity="1" stop-color="rgb(77.598572%, 30.999756%, 100%)" offset="0.0625"/><stop stop-opacity="1" stop-color="rgb(77.540588%, 30.987549%, 100%)" offset="0.09375"/><stop stop-opacity="1" stop-color="rgb(77.328491%, 30.941772%, 100%)" offset="0.101562"/><stop stop-opacity="1" stop-color="rgb(77.018738%, 30.874634%, 100%)" offset="0.109375"/><stop stop-opacity="1" stop-color="rgb(76.708984%, 30.809021%, 100%)" offset="0.117187"/><stop stop-opacity="1" stop-color="rgb(76.399231%, 30.741882%, 100%)" offset="0.125"/><stop stop-opacity="1" stop-color="rgb(76.089478%, 30.674744%, 100%)" offset="0.132812"/><stop stop-opacity="1" stop-color="rgb(75.779724%, 30.609131%, 100%)" offset="0.140625"/><stop stop-opacity="1" stop-color="rgb(75.469971%, 30.541992%, 100%)" offset="0.148438"/><stop stop-opacity="1" stop-color="rgb(75.160217%, 30.476379%, 100%)" offset="0.15625"/><stop stop-opacity="1" stop-color="rgb(74.850464%, 30.409241%, 100%)" offset="0.164062"/><stop stop-opacity="1" stop-color="rgb(74.54071%, 30.343628%, 100%)" offset="0.171875"/><stop stop-opacity="1" stop-color="rgb(74.230957%, 30.276489%, 100%)" offset="0.179687"/><stop stop-opacity="1" stop-color="rgb(73.919678%, 30.210876%, 100%)" offset="0.1875"/><stop stop-opacity="1" stop-color="rgb(73.609924%, 30.143738%, 100%)" offset="0.195312"/><stop stop-opacity="1" stop-color="rgb(73.300171%, 30.078125%, 100%)" offset="0.203125"/><stop stop-opacity="1" stop-color="rgb(72.990417%, 30.010986%, 100%)" offset="0.210937"/><stop stop-opacity="1" stop-color="rgb(72.680664%, 29.945374%, 100%)" offset="0.21875"/><stop stop-opacity="1" stop-color="rgb(72.370911%, 29.878235%, 100%)" offset="0.226562"/><stop stop-opacity="1" stop-color="rgb(72.061157%, 29.812622%, 100%)" offset="0.234375"/><stop stop-opacity="1" stop-color="rgb(71.751404%, 29.745483%, 100%)" offset="0.242187"/><stop stop-opacity="1" stop-color="rgb(71.44165%, 29.679871%, 100%)" offset="0.25"/><stop stop-opacity="1" stop-color="rgb(71.131897%, 29.612732%, 100%)" offset="0.257812"/><stop stop-opacity="1" stop-color="rgb(70.822144%, 29.547119%, 100%)" offset="0.265625"/><stop stop-opacity="1" stop-color="rgb(70.51239%, 29.47998%, 100%)" offset="0.273438"/><stop stop-opacity="1" stop-color="rgb(70.201111%, 29.414368%, 100%)" offset="0.281113"/><stop stop-opacity="1" stop-color="rgb(70.046997%, 29.380798%, 100%)" offset="0.28125"/><stop stop-opacity="1" stop-color="rgb(69.891357%, 29.347229%, 100%)" offset="0.289062"/><stop stop-opacity="1" stop-color="rgb(69.581604%, 29.281616%, 100%)" offset="0.296875"/><stop stop-opacity="1" stop-color="rgb(69.271851%, 29.214478%, 100%)" offset="0.304688"/><stop stop-opacity="1" stop-color="rgb(68.962097%, 29.148865%, 100%)" offset="0.3125"/><stop stop-opacity="1" stop-color="rgb(68.652344%, 29.081726%, 100%)" offset="0.320312"/><stop stop-opacity="1" stop-color="rgb(68.34259%, 29.016113%, 100%)" offset="0.328125"/><stop stop-opacity="1" stop-color="rgb(68.032837%, 28.948975%, 100%)" offset="0.335938"/><stop stop-opacity="1" stop-color="rgb(67.723083%, 28.883362%, 100%)" offset="0.34375"/><stop stop-opacity="1" stop-color="rgb(67.41333%, 28.816223%, 100%)" offset="0.351562"/><stop stop-opacity="1" stop-color="rgb(67.103577%, 28.75061%, 100%)" offset="0.359375"/><stop stop-opacity="1" stop-color="rgb(66.793823%, 28.683472%, 100%)" offset="0.367188"/><stop stop-opacity="1" stop-color="rgb(66.48407%, 28.616333%, 100%)" offset="0.375"/><stop stop-opacity="1" stop-color="rgb(66.172791%, 28.55072%, 100%)" offset="0.382812"/><stop stop-opacity="1" stop-color="rgb(65.863037%, 28.483582%, 100%)" offset="0.390625"/><stop stop-opacity="1" stop-color="rgb(65.553284%, 28.417969%, 100%)" offset="0.398438"/><stop stop-opacity="1" stop-color="rgb(65.24353%, 28.35083%, 100%)" offset="0.40625"/><stop stop-opacity="1" stop-color="rgb(64.933777%, 28.285217%, 100%)" offset="0.414062"/><stop stop-opacity="1" stop-color="rgb(64.624023%, 28.218079%, 100%)" offset="0.421875"/><stop stop-opacity="1" stop-color="rgb(64.31427%, 28.152466%, 100%)" offset="0.429688"/><stop stop-opacity="1" stop-color="rgb(64.004517%, 28.085327%, 100%)" offset="0.4375"/><stop stop-opacity="1" stop-color="rgb(63.694763%, 28.019714%, 100%)" offset="0.445312"/><stop stop-opacity="1" stop-color="rgb(63.38501%, 27.952576%, 100%)" offset="0.453125"/><stop stop-opacity="1" stop-color="rgb(63.075256%, 27.886963%, 100%)" offset="0.460938"/><stop stop-opacity="1" stop-color="rgb(62.765503%, 27.819824%, 100%)" offset="0.46875"/><stop stop-opacity="1" stop-color="rgb(62.45575%, 27.754211%, 100%)" offset="0.476562"/><stop stop-opacity="1" stop-color="rgb(62.14447%, 27.687073%, 100%)" offset="0.484375"/><stop stop-opacity="1" stop-color="rgb(61.834717%, 27.62146%, 100%)" offset="0.492188"/><stop stop-opacity="1" stop-color="rgb(61.524963%, 27.554321%, 100%)" offset="0.5"/><stop stop-opacity="1" stop-color="rgb(61.21521%, 27.488708%, 100%)" offset="0.507812"/><stop stop-opacity="1" stop-color="rgb(60.905457%, 27.42157%, 100%)" offset="0.515625"/><stop stop-opacity="1" stop-color="rgb(60.595703%, 27.355957%, 100%)" offset="0.523438"/><stop stop-opacity="1" stop-color="rgb(60.28595%, 27.288818%, 100%)" offset="0.53125"/><stop stop-opacity="1" stop-color="rgb(59.976196%, 27.223206%, 100%)" offset="0.539062"/><stop stop-opacity="1" stop-color="rgb(59.666443%, 27.156067%, 100%)" offset="0.546875"/><stop stop-opacity="1" stop-color="rgb(59.356689%, 27.090454%, 100%)" offset="0.554688"/><stop stop-opacity="1" stop-color="rgb(59.046936%, 27.023315%, 100%)" offset="0.5625"/><stop stop-opacity="1" stop-color="rgb(58.737183%, 26.957703%, 100%)" offset="0.570312"/><stop stop-opacity="1" stop-color="rgb(58.425903%, 26.890564%, 100%)" offset="0.578125"/><stop stop-opacity="1" stop-color="rgb(58.11615%, 26.824951%, 100%)" offset="0.585938"/><stop stop-opacity="1" stop-color="rgb(57.806396%, 26.757812%, 100%)" offset="0.59375"/><stop stop-opacity="1" stop-color="rgb(57.496643%, 26.690674%, 100%)" offset="0.601562"/><stop stop-opacity="1" stop-color="rgb(57.18689%, 26.625061%, 100%)" offset="0.609375"/><stop stop-opacity="1" stop-color="rgb(56.877136%, 26.557922%, 100%)" offset="0.617188"/><stop stop-opacity="1" stop-color="rgb(56.567383%, 26.49231%, 100%)" offset="0.625"/><stop stop-opacity="1" stop-color="rgb(56.257629%, 26.425171%, 100%)" offset="0.632812"/><stop stop-opacity="1" stop-color="rgb(55.947876%, 26.359558%, 100%)" offset="0.640625"/><stop stop-opacity="1" stop-color="rgb(55.638123%, 26.292419%, 100%)" offset="0.648438"/><stop stop-opacity="1" stop-color="rgb(55.328369%, 26.226807%, 100%)" offset="0.65625"/><stop stop-opacity="1" stop-color="rgb(55.018616%, 26.159668%, 100%)" offset="0.664062"/><stop stop-opacity="1" stop-color="rgb(54.708862%, 26.094055%, 100%)" offset="0.671875"/><stop stop-opacity="1" stop-color="rgb(54.397583%, 26.026917%, 100%)" offset="0.679688"/><stop stop-opacity="1" stop-color="rgb(54.08783%, 25.961304%, 100%)" offset="0.6875"/><stop stop-opacity="1" stop-color="rgb(53.778076%, 25.894165%, 100%)" offset="0.695312"/><stop stop-opacity="1" stop-color="rgb(53.468323%, 25.828552%, 100%)" offset="0.703125"/><stop stop-opacity="1" stop-color="rgb(53.158569%, 25.761414%, 100%)" offset="0.710938"/><stop stop-opacity="1" stop-color="rgb(52.848816%, 25.695801%, 100%)" offset="0.71875"/><stop stop-opacity="1" stop-color="rgb(52.539062%, 25.628662%, 100%)" offset="0.718887"/><stop stop-opacity="1" stop-color="rgb(52.384949%, 25.596619%, 100%)" offset="0.726562"/><stop stop-opacity="1" stop-color="rgb(52.229309%, 25.563049%, 100%)" offset="0.734375"/><stop stop-opacity="1" stop-color="rgb(51.919556%, 25.495911%, 100%)" offset="0.742188"/><stop stop-opacity="1" stop-color="rgb(51.609802%, 25.430298%, 100%)" offset="0.75"/><stop stop-opacity="1" stop-color="rgb(51.300049%, 25.363159%, 100%)" offset="0.757812"/><stop stop-opacity="1" stop-color="rgb(50.990295%, 25.297546%, 100%)" offset="0.765625"/><stop stop-opacity="1" stop-color="rgb(50.679016%, 25.230408%, 100%)" offset="0.773437"/><stop stop-opacity="1" stop-color="rgb(50.369263%, 25.164795%, 100%)" offset="0.78125"/><stop stop-opacity="1" stop-color="rgb(50.059509%, 25.097656%, 100%)" offset="0.789062"/><stop stop-opacity="1" stop-color="rgb(49.749756%, 25.032043%, 100%)" offset="0.796875"/><stop stop-opacity="1" stop-color="rgb(49.440002%, 24.964905%, 100%)" offset="0.804687"/><stop stop-opacity="1" stop-color="rgb(49.130249%, 24.899292%, 100%)" offset="0.8125"/><stop stop-opacity="1" stop-color="rgb(48.820496%, 24.832153%, 100%)" offset="0.820312"/><stop stop-opacity="1" stop-color="rgb(48.510742%, 24.765015%, 100%)" offset="0.828125"/><stop stop-opacity="1" stop-color="rgb(48.277283%, 24.716187%, 100%)" offset="0.84375"/><stop stop-opacity="1" stop-color="rgb(48.199463%, 24.699402%, 100%)" offset="0.875"/><stop stop-opacity="1" stop-color="rgb(48.199463%, 24.699402%, 100%)" offset="1"/></linearGradient></defs><g fill="#7b3fff" fill-opacity="1"><g transform="translate(40.453127, 227.478719)"><g><path d="M 3.328125 -25.234375 C 6.566406 -25.234375 8.847656 -25.21875 10.171875 -25.1875 C 19.023438 -24.988281 23.453125 -20.832031 23.453125 -12.71875 C 23.453125 -8.65625 22.3125 -5.519531 20.03125 -3.3125 C 17.757812 -1.101562 14.390625 0 9.921875 0 L 3.359375 0 C 2.910156 0 2.6875 -0.238281 2.6875 -0.71875 L 2.6875 -24.609375 C 2.6875 -24.835938 2.726562 -25 2.8125 -25.09375 C 2.90625 -25.1875 3.078125 -25.234375 3.328125 -25.234375 Z M 8.03125 -21.625 C 7.820312 -21.625 7.71875 -21.460938 7.71875 -21.140625 L 7.71875 -4.015625 C 7.71875 -3.859375 7.75 -3.75 7.8125 -3.6875 C 7.882812 -3.632812 8 -3.609375 8.15625 -3.609375 L 9.015625 -3.609375 C 12.203125 -3.609375 14.523438 -4.304688 15.984375 -5.703125 C 17.453125 -7.109375 18.1875 -9.445312 18.1875 -12.71875 C 18.1875 -14.820312 17.890625 -16.503906 17.296875 -17.765625 C 16.710938 -19.023438 15.835938 -19.945312 14.671875 -20.53125 C 13.503906 -21.125 11.976562 -21.46875 10.09375 -21.5625 Z M 8.03125 -21.625 "/></g></g></g><g fill="#7b3fff" fill-opacity="1"><g transform="translate(65.644238, 227.478719)"><g><path d="M 5.8125 -7.609375 C 5.8125 -6.679688 6.023438 -5.847656 6.453125 -5.109375 C 6.890625 -4.378906 7.488281 -3.800781 8.25 -3.375 C 9.007812 -2.957031 9.84375 -2.75 10.75 -2.75 C 11.675781 -2.75 12.519531 -2.945312 13.28125 -3.34375 C 14.039062 -3.738281 14.757812 -4.359375 15.4375 -5.203125 C 15.550781 -5.316406 15.640625 -5.375 15.703125 -5.375 C 15.773438 -5.375 15.878906 -5.335938 16.015625 -5.265625 L 18.09375 -4.359375 C 18.25 -4.285156 18.328125 -4.179688 18.328125 -4.046875 C 18.328125 -3.972656 18.28125 -3.867188 18.1875 -3.734375 C 17.164062 -2.265625 16.035156 -1.21875 14.796875 -0.59375 C 13.566406 0.03125 12.046875 0.34375 10.234375 0.34375 C 8.515625 0.34375 6.96875 -0.0390625 5.59375 -0.8125 C 4.21875 -1.582031 3.144531 -2.660156 2.375 -4.046875 C 1.601562 -5.429688 1.21875 -7.003906 1.21875 -8.765625 C 1.21875 -10.671875 1.613281 -12.347656 2.40625 -13.796875 C 3.207031 -15.253906 4.285156 -16.378906 5.640625 -17.171875 C 7.003906 -17.960938 8.515625 -18.359375 10.171875 -18.359375 C 11.867188 -18.359375 13.367188 -17.984375 14.671875 -17.234375 C 15.972656 -16.484375 16.976562 -15.398438 17.6875 -13.984375 C 18.40625 -12.566406 18.765625 -10.882812 18.765625 -8.9375 L 18.765625 -8.8125 C 18.765625 -8.582031 18.726562 -8.421875 18.65625 -8.328125 C 18.59375 -8.234375 18.445312 -8.175781 18.21875 -8.15625 L 6.1875 -8.15625 C 5.9375 -8.15625 5.8125 -7.972656 5.8125 -7.609375 Z M 13.875 -10.671875 C 14.101562 -10.671875 14.253906 -10.695312 14.328125 -10.75 C 14.410156 -10.8125 14.453125 -10.945312 14.453125 -11.15625 C 14.453125 -11.875 14.289062 -12.570312 13.96875 -13.25 C 13.65625 -13.9375 13.1875 -14.492188 12.5625 -14.921875 C 11.9375 -15.359375 11.195312 -15.578125 10.34375 -15.578125 C 9 -15.578125 7.910156 -15.101562 7.078125 -14.15625 C 6.253906 -13.21875 5.851562 -12.054688 5.875 -10.671875 Z M 14.828125 -23.21875 L 14.890625 -22.953125 C 14.890625 -22.722656 14.722656 -22.550781 14.390625 -22.4375 L 6.53125 -20.234375 C 6.457031 -20.210938 6.367188 -20.203125 6.265625 -20.203125 C 6.054688 -20.203125 5.90625 -20.3125 5.8125 -20.53125 L 5.46875 -21.59375 C 5.425781 -21.726562 5.40625 -21.816406 5.40625 -21.859375 C 5.40625 -22.015625 5.484375 -22.128906 5.640625 -22.203125 L 13.609375 -25.53125 C 13.648438 -25.550781 13.703125 -25.5625 13.765625 -25.5625 C 13.929688 -25.5625 14.054688 -25.460938 14.140625 -25.265625 Z M 14.828125 -23.21875 "/></g></g></g><g fill="#7b3fff" fill-opacity="1"><g transform="translate(85.497962, 227.478719)"><g><path d="M 17.953125 -18.015625 C 18.128906 -18.015625 18.257812 -17.945312 18.34375 -17.8125 C 18.425781 -17.675781 18.429688 -17.519531 18.359375 -17.34375 L 11.59375 -0.640625 C 11.476562 -0.421875 11.347656 -0.257812 11.203125 -0.15625 C 11.054688 -0.0507812 10.859375 0 10.609375 0 L 8.609375 0 C 8.328125 0 8.113281 -0.0507812 7.96875 -0.15625 C 7.820312 -0.257812 7.691406 -0.410156 7.578125 -0.609375 L 0.8125 -17.3125 C 0.789062 -17.351562 0.78125 -17.429688 0.78125 -17.546875 C 0.78125 -17.679688 0.820312 -17.789062 0.90625 -17.875 C 1 -17.96875 1.128906 -18.015625 1.296875 -18.015625 L 4.859375 -18.015625 C 5.203125 -18.015625 5.429688 -17.847656 5.546875 -17.515625 L 9.921875 -6.359375 C 9.992188 -6.128906 10.078125 -6.015625 10.171875 -6.015625 C 10.253906 -6.015625 10.351562 -6.140625 10.46875 -6.390625 L 14.828125 -17.546875 C 14.941406 -17.859375 15.15625 -18.015625 15.46875 -18.015625 Z M 17.953125 -18.015625 "/></g></g></g><g fill="#7b3fff" fill-opacity="1"><g transform="translate(104.67177, 227.478719)"><g><path d="M 5.8125 -7.609375 C 5.8125 -6.679688 6.023438 -5.847656 6.453125 -5.109375 C 6.890625 -4.378906 7.488281 -3.800781 8.25 -3.375 C 9.007812 -2.957031 9.84375 -2.75 10.75 -2.75 C 11.675781 -2.75 12.519531 -2.945312 13.28125 -3.34375 C 14.039062 -3.738281 14.757812 -4.359375 15.4375 -5.203125 C 15.550781 -5.316406 15.640625 -5.375 15.703125 -5.375 C 15.773438 -5.375 15.878906 -5.335938 16.015625 -5.265625 L 18.09375 -4.359375 C 18.25 -4.285156 18.328125 -4.179688 18.328125 -4.046875 C 18.328125 -3.972656 18.28125 -3.867188 18.1875 -3.734375 C 17.164062 -2.265625 16.035156 -1.21875 14.796875 -0.59375 C 13.566406 0.03125 12.046875 0.34375 10.234375 0.34375 C 8.515625 0.34375 6.96875 -0.0390625 5.59375 -0.8125 C 4.21875 -1.582031 3.144531 -2.660156 2.375 -4.046875 C 1.601562 -5.429688 1.21875 -7.003906 1.21875 -8.765625 C 1.21875 -10.671875 1.613281 -12.347656 2.40625 -13.796875 C 3.207031 -15.253906 4.285156 -16.378906 5.640625 -17.171875 C 7.003906 -17.960938 8.515625 -18.359375 10.171875 -18.359375 C 11.867188 -18.359375 13.367188 -17.984375 14.671875 -17.234375 C 15.972656 -16.484375 16.976562 -15.398438 17.6875 -13.984375 C 18.40625 -12.566406 18.765625 -10.882812 18.765625 -8.9375 L 18.765625 -8.8125 C 18.765625 -8.582031 18.726562 -8.421875 18.65625 -8.328125 C 18.59375 -8.234375 18.445312 -8.175781 18.21875 -8.15625 L 6.1875 -8.15625 C 5.9375 -8.15625 5.8125 -7.972656 5.8125 -7.609375 Z M 13.875 -10.671875 C 14.101562 -10.671875 14.253906 -10.695312 14.328125 -10.75 C 14.410156 -10.8125 14.453125 -10.945312 14.453125 -11.15625 C 14.453125 -11.875 14.289062 -12.570312 13.96875 -13.25 C 13.65625 -13.9375 13.1875 -14.492188 12.5625 -14.921875 C 11.9375 -15.359375 11.195312 -15.578125 10.34375 -15.578125 C 9 -15.578125 7.910156 -15.101562 7.078125 -14.15625 C 6.253906 -13.21875 5.851562 -12.054688 5.875 -10.671875 Z M 13.875 -10.671875 "/></g></g></g><g fill="#7b3fff" fill-opacity="1"><g transform="translate(124.525494, 227.478719)"><g><path d="M 6.5625 -0.75 C 6.5625 -0.457031 6.503906 -0.257812 6.390625 -0.15625 C 6.273438 -0.0507812 6.070312 0 5.78125 0 L 2.78125 0 C 2.53125 0 2.351562 -0.0390625 2.25 -0.125 C 2.15625 -0.21875 2.109375 -0.378906 2.109375 -0.609375 L 2.203125 -24.65625 C 2.203125 -25.039062 2.375 -25.234375 2.71875 -25.234375 L 6.09375 -25.234375 C 6.40625 -25.234375 6.5625 -25.050781 6.5625 -24.6875 Z M 6.5625 -0.75 "/></g></g></g><g fill="#7b3fff" fill-opacity="1"><g transform="translate(133.262497, 227.478719)"><g><path d="M 10.171875 0.34375 C 8.421875 0.34375 6.863281 -0.046875 5.5 -0.828125 C 4.144531 -1.609375 3.09375 -2.703125 2.34375 -4.109375 C 1.59375 -5.515625 1.21875 -7.113281 1.21875 -8.90625 C 1.21875 -10.738281 1.601562 -12.375 2.375 -13.8125 C 3.144531 -15.257812 4.207031 -16.378906 5.5625 -17.171875 C 6.925781 -17.960938 8.472656 -18.359375 10.203125 -18.359375 C 11.941406 -18.359375 13.488281 -17.957031 14.84375 -17.15625 C 16.207031 -16.351562 17.265625 -15.234375 18.015625 -13.796875 C 18.765625 -12.367188 19.140625 -10.75 19.140625 -8.9375 C 19.140625 -7.144531 18.757812 -5.546875 18 -4.140625 C 17.238281 -2.742188 16.175781 -1.644531 14.8125 -0.84375 C 13.457031 -0.0507812 11.910156 0.34375 10.171875 0.34375 Z M 10.203125 -2.6875 C 11.648438 -2.6875 12.753906 -3.226562 13.515625 -4.3125 C 14.273438 -5.40625 14.65625 -6.972656 14.65625 -9.015625 C 14.65625 -11.078125 14.269531 -12.660156 13.5 -13.765625 C 12.726562 -14.878906 11.628906 -15.4375 10.203125 -15.4375 C 8.773438 -15.4375 7.671875 -14.878906 6.890625 -13.765625 C 6.109375 -12.660156 5.71875 -11.078125 5.71875 -9.015625 C 5.71875 -6.972656 6.109375 -5.40625 6.890625 -4.3125 C 7.671875 -3.226562 8.773438 -2.6875 10.203125 -2.6875 Z M 10.203125 -2.6875 "/></g></g></g><g fill="#7b3fff" fill-opacity="1"><g transform="translate(153.626158, 227.478719)"><g><path d="M 5.921875 -18.015625 C 6.347656 -18.015625 6.5625 -17.8125 6.5625 -17.40625 L 6.5625 -16.25 C 6.5625 -16.070312 6.617188 -15.984375 6.734375 -15.984375 C 6.796875 -15.984375 6.882812 -16.039062 7 -16.15625 C 7.726562 -16.832031 8.457031 -17.367188 9.1875 -17.765625 C 9.925781 -18.160156 10.898438 -18.359375 12.109375 -18.359375 C 13.484375 -18.359375 14.707031 -18.015625 15.78125 -17.328125 C 16.863281 -16.648438 17.710938 -15.625 18.328125 -14.25 C 18.941406 -12.882812 19.25 -11.207031 19.25 -9.21875 C 19.25 -6.113281 18.566406 -3.742188 17.203125 -2.109375 C 15.835938 -0.472656 14.035156 0.34375 11.796875 0.34375 C 9.984375 0.34375 8.441406 -0.234375 7.171875 -1.390625 C 6.941406 -1.578125 6.796875 -1.671875 6.734375 -1.671875 C 6.617188 -1.671875 6.5625 -1.507812 6.5625 -1.1875 L 6.5625 5.0625 C 6.5625 5.425781 6.40625 5.609375 6.09375 5.609375 L 2.625 5.609375 C 2.300781 5.609375 2.140625 5.425781 2.140625 5.0625 L 2.140625 -17.34375 C 2.140625 -17.59375 2.191406 -17.765625 2.296875 -17.859375 C 2.398438 -17.960938 2.578125 -18.015625 2.828125 -18.015625 Z M 6.5625 -4.421875 C 7.695312 -3.171875 8.929688 -2.546875 10.265625 -2.546875 C 11.671875 -2.546875 12.769531 -3.09375 13.5625 -4.1875 C 14.351562 -5.289062 14.75 -6.976562 14.75 -9.25 C 14.75 -11.425781 14.359375 -13.003906 13.578125 -13.984375 C 12.796875 -14.972656 11.738281 -15.46875 10.40625 -15.46875 C 9.675781 -15.46875 9.015625 -15.3125 8.421875 -15 C 7.835938 -14.695312 7.378906 -14.304688 7.046875 -13.828125 C 6.722656 -13.359375 6.5625 -12.863281 6.5625 -12.34375 Z M 6.5625 -4.421875 "/></g></g></g><g fill="#7b3fff" fill-opacity="1"><g transform="translate(174.193799, 227.478719)"><g><path d="M 5.921875 -18.015625 C 6.347656 -18.015625 6.5625 -17.8125 6.5625 -17.40625 L 6.5625 -16.25 C 6.5625 -16.070312 6.617188 -15.984375 6.734375 -15.984375 C 6.796875 -15.984375 6.882812 -16.039062 7 -16.15625 C 7.726562 -16.832031 8.457031 -17.367188 9.1875 -17.765625 C 9.925781 -18.160156 10.898438 -18.359375 12.109375 -18.359375 C 13.484375 -18.359375 14.707031 -18.015625 15.78125 -17.328125 C 16.863281 -16.648438 17.710938 -15.625 18.328125 -14.25 C 18.941406 -12.882812 19.25 -11.207031 19.25 -9.21875 C 19.25 -6.113281 18.566406 -3.742188 17.203125 -2.109375 C 15.835938 -0.472656 14.035156 0.34375 11.796875 0.34375 C 9.984375 0.34375 8.441406 -0.234375 7.171875 -1.390625 C 6.941406 -1.578125 6.796875 -1.671875 6.734375 -1.671875 C 6.617188 -1.671875 6.5625 -1.507812 6.5625 -1.1875 L 6.5625 5.0625 C 6.5625 5.425781 6.40625 5.609375 6.09375 5.609375 L 2.625 5.609375 C 2.300781 5.609375 2.140625 5.425781 2.140625 5.0625 L 2.140625 -17.34375 C 2.140625 -17.59375 2.191406 -17.765625 2.296875 -17.859375 C 2.398438 -17.960938 2.578125 -18.015625 2.828125 -18.015625 Z M 6.5625 -4.421875 C 7.695312 -3.171875 8.929688 -2.546875 10.265625 -2.546875 C 11.671875 -2.546875 12.769531 -3.09375 13.5625 -4.1875 C 14.351562 -5.289062 14.75 -6.976562 14.75 -9.25 C 14.75 -11.425781 14.359375 -13.003906 13.578125 -13.984375 C 12.796875 -14.972656 11.738281 -15.46875 10.40625 -15.46875 C 9.675781 -15.46875 9.015625 -15.3125 8.421875 -15 C 7.835938 -14.695312 7.378906 -14.304688 7.046875 -13.828125 C 6.722656 -13.359375 6.5625 -12.863281 6.5625 -12.34375 Z M 6.5625 -4.421875 "/></g></g></g><g fill="#7b3fff" fill-opacity="1"><g transform="translate(194.76144, 227.478719)"><g><path d="M 5.8125 -7.609375 C 5.8125 -6.679688 6.023438 -5.847656 6.453125 -5.109375 C 6.890625 -4.378906 7.488281 -3.800781 8.25 -3.375 C 9.007812 -2.957031 9.84375 -2.75 10.75 -2.75 C 11.675781 -2.75 12.519531 -2.945312 13.28125 -3.34375 C 14.039062 -3.738281 14.757812 -4.359375 15.4375 -5.203125 C 15.550781 -5.316406 15.640625 -5.375 15.703125 -5.375 C 15.773438 -5.375 15.878906 -5.335938 16.015625 -5.265625 L 18.09375 -4.359375 C 18.25 -4.285156 18.328125 -4.179688 18.328125 -4.046875 C 18.328125 -3.972656 18.28125 -3.867188 18.1875 -3.734375 C 17.164062 -2.265625 16.035156 -1.21875 14.796875 -0.59375 C 13.566406 0.03125 12.046875 0.34375 10.234375 0.34375 C 8.515625 0.34375 6.96875 -0.0390625 5.59375 -0.8125 C 4.21875 -1.582031 3.144531 -2.660156 2.375 -4.046875 C 1.601562 -5.429688 1.21875 -7.003906 1.21875 -8.765625 C 1.21875 -10.671875 1.613281 -12.347656 2.40625 -13.796875 C 3.207031 -15.253906 4.285156 -16.378906 5.640625 -17.171875 C 7.003906 -17.960938 8.515625 -18.359375 10.171875 -18.359375 C 11.867188 -18.359375 13.367188 -17.984375 14.671875 -17.234375 C 15.972656 -16.484375 16.976562 -15.398438 17.6875 -13.984375 C 18.40625 -12.566406 18.765625 -10.882812 18.765625 -8.9375 L 18.765625 -8.8125 C 18.765625 -8.582031 18.726562 -8.421875 18.65625 -8.328125 C 18.59375 -8.234375 18.445312 -8.175781 18.21875 -8.15625 L 6.1875 -8.15625 C 5.9375 -8.15625 5.8125 -7.972656 5.8125 -7.609375 Z M 13.875 -10.671875 C 14.101562 -10.671875 14.253906 -10.695312 14.328125 -10.75 C 14.410156 -10.8125 14.453125 -10.945312 14.453125 -11.15625 C 14.453125 -11.875 14.289062 -12.570312 13.96875 -13.25 C 13.65625 -13.9375 13.1875 -14.492188 12.5625 -14.921875 C 11.9375 -15.359375 11.195312 -15.578125 10.34375 -15.578125 C 9 -15.578125 7.910156 -15.101562 7.078125 -14.15625 C 6.253906 -13.21875 5.851562 -12.054688 5.875 -10.671875 Z M 13.875 -10.671875 "/></g></g></g><g fill="#7b3fff" fill-opacity="1"><g transform="translate(214.615164, 227.478719)"><g><path d="M 9.109375 -2.890625 C 10.492188 -2.890625 11.9375 -3.671875 13.4375 -5.234375 L 13.4375 -17.34375 C 13.4375 -17.789062 13.695312 -18.015625 14.21875 -18.015625 L 17.265625 -18.015625 C 17.679688 -18.015625 17.890625 -17.800781 17.890625 -17.375 L 17.8125 -0.546875 C 17.8125 -0.179688 17.65625 0 17.34375 0 L 14.015625 0 C 13.691406 0 13.53125 -0.171875 13.53125 -0.515625 L 13.53125 -2.3125 C 13.53125 -2.425781 13.492188 -2.492188 13.421875 -2.515625 C 13.359375 -2.535156 13.28125 -2.5 13.1875 -2.40625 C 12.144531 -1.414062 11.15625 -0.707031 10.21875 -0.28125 C 9.28125 0.132812 8.273438 0.34375 7.203125 0.34375 C 5.660156 0.34375 4.394531 -0.140625 3.40625 -1.109375 C 2.425781 -2.085938 1.9375 -3.394531 1.9375 -5.03125 L 1.9375 -17.3125 C 1.9375 -17.78125 2.175781 -18.015625 2.65625 -18.015625 L 5.78125 -18.015625 C 5.988281 -18.015625 6.132812 -17.960938 6.21875 -17.859375 C 6.3125 -17.765625 6.359375 -17.601562 6.359375 -17.375 L 6.359375 -5.78125 C 6.359375 -4.894531 6.609375 -4.191406 7.109375 -3.671875 C 7.609375 -3.148438 8.273438 -2.890625 9.109375 -2.890625 Z M 9.109375 -2.890625 "/></g></g></g><g fill="#7b3fff" fill-opacity="1"><g transform="translate(234.604878, 227.478719)"><g><path d="M 2.75 0 C 2.34375 0 2.140625 -0.203125 2.140625 -0.609375 L 2.140625 -17.4375 C 2.140625 -17.820312 2.300781 -18.015625 2.625 -18.015625 L 5.921875 -18.015625 C 6.234375 -18.015625 6.390625 -17.847656 6.390625 -17.515625 L 6.390625 -15.4375 C 6.390625 -15.25 6.445312 -15.15625 6.5625 -15.15625 C 6.625 -15.15625 6.710938 -15.210938 6.828125 -15.328125 C 7.578125 -16.285156 8.40625 -17.03125 9.3125 -17.5625 C 10.21875 -18.09375 11.101562 -18.359375 11.96875 -18.359375 C 12.78125 -18.359375 13.1875 -18.175781 13.1875 -17.8125 L 13.1875 -14.546875 C 13.1875 -14.234375 13.039062 -14.097656 12.75 -14.140625 C 12.113281 -14.296875 11.410156 -14.375 10.640625 -14.375 C 10.054688 -14.375 9.4375 -14.21875 8.78125 -13.90625 C 8.132812 -13.59375 7.601562 -13.179688 7.1875 -12.671875 C 6.769531 -12.160156 6.5625 -11.628906 6.5625 -11.078125 L 6.5625 -0.6875 C 6.5625 -0.226562 6.300781 0 5.78125 0 Z M 2.75 0 "/></g></g></g><g fill="#7b3fff" fill-opacity="1"><g transform="translate(248.57729, 227.478719)"><g/></g></g><g fill="#7b3fff" fill-opacity="1"><g transform="translate(255.682468, 227.478719)"><g><path d="M 26.25 -18.015625 C 26.425781 -18.015625 26.5625 -17.945312 26.65625 -17.8125 C 26.75 -17.675781 26.757812 -17.519531 26.6875 -17.34375 L 21.25 -0.515625 C 21.15625 -0.171875 20.925781 0 20.5625 0 L 18.15625 0 C 17.75 0 17.476562 -0.191406 17.34375 -0.578125 L 14.046875 -11.078125 C 13.972656 -11.285156 13.890625 -11.390625 13.796875 -11.390625 C 13.710938 -11.390625 13.632812 -11.285156 13.5625 -11.078125 L 10.296875 -0.515625 C 10.253906 -0.328125 10.179688 -0.191406 10.078125 -0.109375 C 9.972656 -0.0351562 9.820312 0 9.625 0 L 7.109375 0 C 6.671875 0 6.410156 -0.191406 6.328125 -0.578125 L 0.890625 -17.3125 C 0.859375 -17.351562 0.84375 -17.429688 0.84375 -17.546875 C 0.84375 -17.679688 0.890625 -17.789062 0.984375 -17.875 C 1.078125 -17.96875 1.203125 -18.015625 1.359375 -18.015625 L 4.65625 -18.015625 C 4.84375 -18.015625 4.992188 -17.96875 5.109375 -17.875 C 5.234375 -17.789062 5.3125 -17.671875 5.34375 -17.515625 L 8.734375 -6.65625 C 8.753906 -6.570312 8.78125 -6.492188 8.8125 -6.421875 C 8.851562 -6.359375 8.894531 -6.328125 8.9375 -6.328125 C 9.050781 -6.328125 9.144531 -6.453125 9.21875 -6.703125 L 12.515625 -17.546875 C 12.628906 -17.859375 12.84375 -18.015625 13.15625 -18.015625 L 15.609375 -18.015625 C 15.921875 -18.015625 16.132812 -17.847656 16.25 -17.515625 L 19.625 -6.65625 C 19.6875 -6.4375 19.765625 -6.328125 19.859375 -6.328125 C 19.941406 -6.328125 20.019531 -6.453125 20.09375 -6.703125 L 23.390625 -17.546875 C 23.429688 -17.679688 23.515625 -17.789062 23.640625 -17.875 C 23.765625 -17.96875 23.910156 -18.015625 24.078125 -18.015625 Z M 26.25 -18.015625 "/></g></g></g><g fill="#7b3fff" fill-opacity="1"><g transform="translate(283.253297, 227.478719)"><g><path d="M 5.8125 -7.609375 C 5.8125 -6.679688 6.023438 -5.847656 6.453125 -5.109375 C 6.890625 -4.378906 7.488281 -3.800781 8.25 -3.375 C 9.007812 -2.957031 9.84375 -2.75 10.75 -2.75 C 11.675781 -2.75 12.519531 -2.945312 13.28125 -3.34375 C 14.039062 -3.738281 14.757812 -4.359375 15.4375 -5.203125 C 15.550781 -5.316406 15.640625 -5.375 15.703125 -5.375 C 15.773438 -5.375 15.878906 -5.335938 16.015625 -5.265625 L 18.09375 -4.359375 C 18.25 -4.285156 18.328125 -4.179688 18.328125 -4.046875 C 18.328125 -3.972656 18.28125 -3.867188 18.1875 -3.734375 C 17.164062 -2.265625 16.035156 -1.21875 14.796875 -0.59375 C 13.566406 0.03125 12.046875 0.34375 10.234375 0.34375 C 8.515625 0.34375 6.96875 -0.0390625 5.59375 -0.8125 C 4.21875 -1.582031 3.144531 -2.660156 2.375 -4.046875 C 1.601562 -5.429688 1.21875 -7.003906 1.21875 -8.765625 C 1.21875 -10.671875 1.613281 -12.347656 2.40625 -13.796875 C 3.207031 -15.253906 4.285156 -16.378906 5.640625 -17.171875 C 7.003906 -17.960938 8.515625 -18.359375 10.171875 -18.359375 C 11.867188 -18.359375 13.367188 -17.984375 14.671875 -17.234375 C 15.972656 -16.484375 16.976562 -15.398438 17.6875 -13.984375 C 18.40625 -12.566406 18.765625 -10.882812 18.765625 -8.9375 L 18.765625 -8.8125 C 18.765625 -8.582031 18.726562 -8.421875 18.65625 -8.328125 C 18.59375 -8.234375 18.445312 -8.175781 18.21875 -8.15625 L 6.1875 -8.15625 C 5.9375 -8.15625 5.8125 -7.972656 5.8125 -7.609375 Z M 13.875 -10.671875 C 14.101562 -10.671875 14.253906 -10.695312 14.328125 -10.75 C 14.410156 -10.8125 14.453125 -10.945312 14.453125 -11.15625 C 14.453125 -11.875 14.289062 -12.570312 13.96875 -13.25 C 13.65625 -13.9375 13.1875 -14.492188 12.5625 -14.921875 C 11.9375 -15.359375 11.195312 -15.578125 10.34375 -15.578125 C 9 -15.578125 7.910156 -15.101562 7.078125 -14.15625 C 6.253906 -13.21875 5.851562 -12.054688 5.875 -10.671875 Z M 13.875 -10.671875 "/></g></g></g><g fill="#7b3fff" fill-opacity="1"><g transform="translate(303.10701, 227.478719)"><g><path d="M 2.828125 0 C 2.578125 0 2.398438 -0.0507812 2.296875 -0.15625 C 2.191406 -0.257812 2.140625 -0.4375 2.140625 -0.6875 L 2.140625 -24.65625 C 2.140625 -25.039062 2.3125 -25.234375 2.65625 -25.234375 L 6.09375 -25.234375 C 6.40625 -25.234375 6.5625 -25.039062 6.5625 -24.65625 L 6.5625 -16.59375 C 6.5625 -16.320312 6.628906 -16.1875 6.765625 -16.1875 C 6.835938 -16.1875 6.953125 -16.242188 7.109375 -16.359375 C 8.554688 -17.691406 10.222656 -18.359375 12.109375 -18.359375 C 14.421875 -18.359375 16.191406 -17.515625 17.421875 -15.828125 C 18.660156 -14.140625 19.28125 -11.898438 19.28125 -9.109375 C 19.28125 -6.179688 18.597656 -3.875 17.234375 -2.1875 C 15.878906 -0.5 13.976562 0.34375 11.53125 0.34375 C 10.300781 0.34375 9.234375 0.078125 8.328125 -0.453125 C 7.421875 -0.992188 6.675781 -1.632812 6.09375 -2.375 C 6.019531 -2.488281 5.945312 -2.546875 5.875 -2.546875 C 5.8125 -2.546875 5.757812 -2.457031 5.71875 -2.28125 L 5.375 -0.640625 C 5.320312 -0.421875 5.238281 -0.257812 5.125 -0.15625 C 5.019531 -0.0507812 4.863281 0 4.65625 0 Z M 6.5625 -6.1875 C 6.5625 -5.125 6.945312 -4.234375 7.71875 -3.515625 C 8.488281 -2.804688 9.394531 -2.453125 10.4375 -2.453125 C 11.769531 -2.453125 12.820312 -2.988281 13.59375 -4.0625 C 14.363281 -5.132812 14.75 -6.796875 14.75 -9.046875 C 14.75 -13.328125 13.367188 -15.46875 10.609375 -15.46875 C 9.816406 -15.46875 9.070312 -15.28125 8.375 -14.90625 C 7.6875 -14.53125 7.082031 -14.023438 6.5625 -13.390625 Z M 6.5625 -6.1875 "/></g></g></g><g fill="#bf4dff" fill-opacity="1"><g transform="translate(155.835932, 262.337092)"><g><path d="M 5.5 0.109375 C 4.550781 0.109375 3.726562 -0.09375 3.03125 -0.5 C 2.34375 -0.914062 1.8125 -1.507812 1.4375 -2.28125 C 1.0625 -3.0625 0.875 -3.976562 0.875 -5.03125 C 0.875 -6.070312 1.0625 -6.976562 1.4375 -7.75 C 1.8125 -8.53125 2.34375 -9.125 3.03125 -9.53125 C 3.726562 -9.945312 4.550781 -10.15625 5.5 -10.15625 C 6.132812 -10.15625 6.734375 -10.050781 7.296875 -9.84375 C 7.867188 -9.644531 8.363281 -9.359375 8.78125 -8.984375 C 8.925781 -8.835938 9 -8.671875 9 -8.484375 C 9 -8.347656 8.960938 -8.226562 8.890625 -8.125 C 8.816406 -8.03125 8.726562 -7.984375 8.625 -7.984375 C 8.507812 -7.984375 8.367188 -8.035156 8.203125 -8.140625 C 7.722656 -8.515625 7.285156 -8.773438 6.890625 -8.921875 C 6.492188 -9.078125 6.039062 -9.15625 5.53125 -9.15625 C 4.425781 -9.15625 3.578125 -8.796875 2.984375 -8.078125 C 2.390625 -7.367188 2.09375 -6.351562 2.09375 -5.03125 C 2.09375 -3.695312 2.390625 -2.671875 2.984375 -1.953125 C 3.578125 -1.242188 4.425781 -0.890625 5.53125 -0.890625 C 6.03125 -0.890625 6.476562 -0.960938 6.875 -1.109375 C 7.28125 -1.265625 7.722656 -1.53125 8.203125 -1.90625 C 8.367188 -2.007812 8.507812 -2.0625 8.625 -2.0625 C 8.726562 -2.0625 8.816406 -2.015625 8.890625 -1.921875 C 8.960938 -1.828125 9 -1.707031 9 -1.5625 C 9 -1.375 8.925781 -1.207031 8.78125 -1.0625 C 8.363281 -0.6875 7.867188 -0.394531 7.296875 -0.1875 C 6.734375 0.0078125 6.132812 0.109375 5.5 0.109375 Z M 5.5 0.109375 "/></g></g></g><g fill="#bf4dff" fill-opacity="1"><g transform="translate(165.475221, 262.337092)"><g><path d="M 6.34375 -7.078125 C 6.519531 -7.078125 6.65625 -7.023438 6.75 -6.921875 C 6.851562 -6.816406 6.90625 -6.679688 6.90625 -6.515625 L 6.90625 -0.484375 C 6.90625 -0.328125 6.851562 -0.191406 6.75 -0.078125 C 6.65625 0.0234375 6.519531 0.078125 6.34375 0.078125 C 6.164062 0.078125 6.023438 0.0234375 5.921875 -0.078125 C 5.828125 -0.179688 5.78125 -0.3125 5.78125 -0.46875 L 5.78125 -1.1875 C 5.5625 -0.769531 5.253906 -0.453125 4.859375 -0.234375 C 4.472656 -0.015625 4.03125 0.09375 3.53125 0.09375 C 2.707031 0.09375 2.085938 -0.132812 1.671875 -0.59375 C 1.253906 -1.050781 1.046875 -1.734375 1.046875 -2.640625 L 1.046875 -6.515625 C 1.046875 -6.679688 1.097656 -6.816406 1.203125 -6.921875 C 1.304688 -7.023438 1.445312 -7.078125 1.625 -7.078125 C 1.800781 -7.078125 1.9375 -7.023438 2.03125 -6.921875 C 2.132812 -6.816406 2.1875 -6.679688 2.1875 -6.515625 L 2.1875 -2.671875 C 2.1875 -2.046875 2.3125 -1.585938 2.5625 -1.296875 C 2.8125 -1.015625 3.203125 -0.875 3.734375 -0.875 C 4.335938 -0.875 4.820312 -1.066406 5.1875 -1.453125 C 5.5625 -1.847656 5.75 -2.367188 5.75 -3.015625 L 5.75 -6.515625 C 5.75 -6.679688 5.800781 -6.816406 5.90625 -6.921875 C 6.019531 -7.023438 6.164062 -7.078125 6.34375 -7.078125 Z M 6.34375 -7.078125 "/></g></g></g><g fill="#bf4dff" fill-opacity="1"><g transform="translate(173.462876, 262.337092)"><g><path d="M 4.5 -7.078125 C 4.894531 -7.109375 5.09375 -6.945312 5.09375 -6.59375 C 5.09375 -6.445312 5.050781 -6.328125 4.96875 -6.234375 C 4.882812 -6.140625 4.738281 -6.085938 4.53125 -6.078125 L 4.109375 -6.03125 C 3.472656 -5.96875 3 -5.738281 2.6875 -5.34375 C 2.375 -4.957031 2.21875 -4.5 2.21875 -3.96875 L 2.21875 -0.5 C 2.21875 -0.3125 2.164062 -0.164062 2.0625 -0.0625 C 1.957031 0.03125 1.820312 0.078125 1.65625 0.078125 C 1.476562 0.078125 1.332031 0.0234375 1.21875 -0.078125 C 1.113281 -0.179688 1.0625 -0.320312 1.0625 -0.5 L 1.0625 -6.515625 C 1.0625 -6.691406 1.117188 -6.828125 1.234375 -6.921875 C 1.347656 -7.023438 1.488281 -7.078125 1.65625 -7.078125 C 1.800781 -7.078125 1.925781 -7.023438 2.03125 -6.921875 C 2.132812 -6.828125 2.1875 -6.695312 2.1875 -6.53125 L 2.1875 -5.734375 C 2.394531 -6.148438 2.679688 -6.46875 3.046875 -6.6875 C 3.410156 -6.90625 3.828125 -7.03125 4.296875 -7.0625 Z M 4.5 -7.078125 "/></g></g></g><g fill="#bf4dff" fill-opacity="1"><g transform="translate(178.488972, 262.337092)"><g><path d="M 4.28125 -0.84375 C 4.613281 -0.8125 4.78125 -0.660156 4.78125 -0.390625 C 4.78125 -0.222656 4.71875 -0.0976562 4.59375 -0.015625 C 4.476562 0.0546875 4.300781 0.0859375 4.0625 0.078125 L 3.671875 0.046875 C 2.910156 -0.015625 2.347656 -0.242188 1.984375 -0.640625 C 1.628906 -1.035156 1.453125 -1.640625 1.453125 -2.453125 L 1.453125 -6.03125 L 0.5 -6.03125 C 0.332031 -6.03125 0.203125 -6.066406 0.109375 -6.140625 C 0.0234375 -6.222656 -0.015625 -6.332031 -0.015625 -6.46875 C -0.015625 -6.613281 0.0234375 -6.726562 0.109375 -6.8125 C 0.203125 -6.894531 0.332031 -6.9375 0.5 -6.9375 L 1.453125 -6.9375 L 1.453125 -8.546875 C 1.453125 -8.734375 1.503906 -8.875 1.609375 -8.96875 C 1.710938 -9.070312 1.851562 -9.125 2.03125 -9.125 C 2.207031 -9.125 2.347656 -9.070312 2.453125 -8.96875 C 2.554688 -8.875 2.609375 -8.734375 2.609375 -8.546875 L 2.609375 -6.9375 L 4.1875 -6.9375 C 4.34375 -6.9375 4.460938 -6.894531 4.546875 -6.8125 C 4.640625 -6.726562 4.6875 -6.613281 4.6875 -6.46875 C 4.6875 -6.332031 4.640625 -6.222656 4.546875 -6.140625 C 4.460938 -6.066406 4.34375 -6.03125 4.1875 -6.03125 L 2.609375 -6.03125 L 2.609375 -2.390625 C 2.609375 -1.867188 2.710938 -1.488281 2.921875 -1.25 C 3.140625 -1.019531 3.460938 -0.894531 3.890625 -0.875 Z M 4.28125 -0.84375 "/></g></g></g><g fill="#bf4dff" fill-opacity="1"><g transform="translate(183.329971, 262.337092)"><g><path d="M 1.65625 0.078125 C 1.476562 0.078125 1.332031 0.0234375 1.21875 -0.078125 C 1.113281 -0.179688 1.0625 -0.320312 1.0625 -0.5 L 1.0625 -6.515625 C 1.0625 -6.691406 1.113281 -6.828125 1.21875 -6.921875 C 1.332031 -7.023438 1.476562 -7.078125 1.65625 -7.078125 C 1.820312 -7.078125 1.957031 -7.023438 2.0625 -6.921875 C 2.164062 -6.828125 2.21875 -6.691406 2.21875 -6.515625 L 2.21875 -0.5 C 2.21875 -0.3125 2.164062 -0.164062 2.0625 -0.0625 C 1.957031 0.03125 1.820312 0.078125 1.65625 0.078125 Z M 1.65625 -8.578125 C 1.425781 -8.578125 1.238281 -8.644531 1.09375 -8.78125 C 0.957031 -8.914062 0.890625 -9.09375 0.890625 -9.3125 C 0.890625 -9.519531 0.957031 -9.6875 1.09375 -9.8125 C 1.238281 -9.945312 1.425781 -10.015625 1.65625 -10.015625 C 1.882812 -10.015625 2.066406 -9.945312 2.203125 -9.8125 C 2.347656 -9.6875 2.421875 -9.519531 2.421875 -9.3125 C 2.421875 -9.09375 2.347656 -8.914062 2.203125 -8.78125 C 2.066406 -8.644531 1.882812 -8.578125 1.65625 -8.578125 Z M 1.65625 -8.578125 "/></g></g></g><g fill="#bf4dff" fill-opacity="1"><g transform="translate(186.63324, 262.337092)"><g><path d="M 3.40625 0.09375 C 2.96875 0.09375 2.550781 0.0390625 2.15625 -0.0625 C 1.757812 -0.164062 1.410156 -0.3125 1.109375 -0.5 C 0.941406 -0.613281 0.820312 -0.71875 0.75 -0.8125 C 0.675781 -0.914062 0.640625 -1.039062 0.640625 -1.1875 C 0.640625 -1.3125 0.675781 -1.410156 0.75 -1.484375 C 0.820312 -1.566406 0.914062 -1.609375 1.03125 -1.609375 C 1.144531 -1.609375 1.3125 -1.535156 1.53125 -1.390625 C 1.8125 -1.222656 2.09375 -1.085938 2.375 -0.984375 C 2.65625 -0.890625 3.003906 -0.84375 3.421875 -0.84375 C 3.929688 -0.84375 4.328125 -0.929688 4.609375 -1.109375 C 4.898438 -1.285156 5.046875 -1.546875 5.046875 -1.890625 C 5.046875 -2.097656 4.992188 -2.265625 4.890625 -2.390625 C 4.785156 -2.523438 4.601562 -2.640625 4.34375 -2.734375 C 4.09375 -2.835938 3.71875 -2.941406 3.21875 -3.046875 C 2.382812 -3.222656 1.785156 -3.460938 1.421875 -3.765625 C 1.066406 -4.078125 0.890625 -4.492188 0.890625 -5.015625 C 0.890625 -5.421875 1 -5.78125 1.21875 -6.09375 C 1.445312 -6.40625 1.765625 -6.648438 2.171875 -6.828125 C 2.578125 -7.015625 3.035156 -7.109375 3.546875 -7.109375 C 3.921875 -7.109375 4.28125 -7.054688 4.625 -6.953125 C 4.96875 -6.859375 5.273438 -6.722656 5.546875 -6.546875 C 5.867188 -6.316406 6.03125 -6.078125 6.03125 -5.828125 C 6.03125 -5.703125 5.988281 -5.597656 5.90625 -5.515625 C 5.832031 -5.429688 5.742188 -5.390625 5.640625 -5.390625 C 5.523438 -5.390625 5.351562 -5.46875 5.125 -5.625 C 4.863281 -5.800781 4.613281 -5.9375 4.375 -6.03125 C 4.132812 -6.125 3.835938 -6.171875 3.484375 -6.171875 C 3.046875 -6.171875 2.691406 -6.070312 2.421875 -5.875 C 2.148438 -5.675781 2.015625 -5.410156 2.015625 -5.078125 C 2.015625 -4.867188 2.0625 -4.695312 2.15625 -4.5625 C 2.257812 -4.4375 2.425781 -4.320312 2.65625 -4.21875 C 2.882812 -4.125 3.21875 -4.03125 3.65625 -3.9375 C 4.300781 -3.789062 4.800781 -3.628906 5.15625 -3.453125 C 5.519531 -3.285156 5.773438 -3.078125 5.921875 -2.828125 C 6.078125 -2.585938 6.15625 -2.273438 6.15625 -1.890625 C 6.15625 -1.296875 5.898438 -0.816406 5.390625 -0.453125 C 4.890625 -0.0859375 4.226562 0.09375 3.40625 0.09375 Z M 3.40625 0.09375 "/></g></g></g><g fill="#bf4dff" fill-opacity="1"><g transform="translate(193.467594, 262.337092)"><g/></g></g><g fill="#bf4dff" fill-opacity="1"><g transform="translate(197.141055, 262.337092)"><g><path d="M 1.828125 0.078125 C 1.640625 0.078125 1.492188 0.0234375 1.390625 -0.078125 C 1.285156 -0.191406 1.234375 -0.34375 1.234375 -0.53125 L 1.234375 -9.46875 C 1.234375 -9.644531 1.285156 -9.785156 1.390625 -9.890625 C 1.503906 -9.992188 1.65625 -10.046875 1.84375 -10.046875 L 7.03125 -10.046875 C 7.195312 -10.046875 7.328125 -10.003906 7.421875 -9.921875 C 7.515625 -9.835938 7.5625 -9.710938 7.5625 -9.546875 C 7.5625 -9.390625 7.515625 -9.269531 7.421875 -9.1875 C 7.328125 -9.101562 7.195312 -9.0625 7.03125 -9.0625 L 2.390625 -9.0625 L 2.390625 -5.59375 L 6.734375 -5.59375 C 6.910156 -5.59375 7.046875 -5.550781 7.140625 -5.46875 C 7.234375 -5.382812 7.28125 -5.257812 7.28125 -5.09375 C 7.28125 -4.945312 7.234375 -4.828125 7.140625 -4.734375 C 7.046875 -4.648438 6.910156 -4.609375 6.734375 -4.609375 L 2.390625 -4.609375 L 2.390625 -0.53125 C 2.390625 -0.34375 2.335938 -0.191406 2.234375 -0.078125 C 2.140625 0.0234375 2.003906 0.078125 1.828125 0.078125 Z M 1.828125 0.078125 "/></g></g></g><g fill="#bf4dff" fill-opacity="1"><g transform="translate(205.071753, 262.337092)"><g><path d="M 1.640625 0.078125 C 1.410156 0.078125 1.21875 0.00390625 1.0625 -0.140625 C 0.914062 -0.296875 0.84375 -0.492188 0.84375 -0.734375 C 0.84375 -0.960938 0.914062 -1.148438 1.0625 -1.296875 C 1.21875 -1.453125 1.410156 -1.53125 1.640625 -1.53125 C 1.859375 -1.53125 2.039062 -1.453125 2.1875 -1.296875 C 2.332031 -1.148438 2.40625 -0.960938 2.40625 -0.734375 C 2.40625 -0.492188 2.332031 -0.296875 2.1875 -0.140625 C 2.039062 0.00390625 1.859375 0.078125 1.640625 0.078125 Z M 1.640625 0.078125 "/></g></g></g><g clip-path="url(#0e36411bb7)"><g clip-path="url(#bde6d9a262)"><path fill="url(#c939cb7163)" d="M 228.128906 111.394531 L 147.136719 111.394531 L 147.136719 188.640625 L 228.128906 188.640625 Z M 228.128906 111.394531 " fill-rule="nonzero"/></g></g></svg>